<?xml version="1.0" encoding="UTF-8"?>
<svg xmlns="http://www.w3.org/2000/svg" width="40" height="40" viewBox="0 0 40 40" fill="none">
  <path fill-rule="evenodd" clip-rule="evenodd" d="M22.369 2.27666L24.7507 4.05947C25.4021 4.54705 26.0877 4.79658 26.9002 4.84181L29.8705 5.00705C31.6492 5.10595 33.0938 6.31806 33.5001 8.05259L34.1787 10.9492C34.3642 11.7414 34.7291 12.3733 35.3223 12.9301L37.4916 14.9661C38.7905 16.1852 39.118 18.0423 38.3144 19.6321L36.9723 22.2872C36.6052 23.0134 36.4785 23.7319 36.5751 24.5398L36.9282 27.4938C37.1396 29.2627 36.1967 30.8957 34.5592 31.597L31.8244 32.7683C31.0764 33.0886 30.5175 33.5576 30.0722 34.2385L28.4438 36.7284C27.4688 38.2192 25.6968 38.8642 23.9916 38.3488L21.1438 37.4882C20.365 37.2528 19.6354 37.2528 18.8565 37.4882L16.0087 38.3488C14.3035 38.8642 12.5315 38.2192 11.5565 36.7284L9.92812 34.2385C9.48273 33.5576 8.92382 33.0886 8.17593 32.7683L5.44093 31.5969C3.80343 30.8956 2.86054 29.2625 3.07195 27.4937L3.42507 24.5396C3.52164 23.7317 3.39492 23.0132 3.02789 22.287L1.68578 19.632C0.882183 18.0422 1.2096 16.1851 2.50851 14.966L4.67781 12.9299C5.27109 12.3731 5.63585 11.7413 5.8214 10.9491L6.49999 8.05244C6.90624 6.31799 8.35085 5.10588 10.1295 5.00689L13.0999 4.84166C13.9123 4.7965 14.598 4.54689 15.2494 4.05931L17.6311 2.2765C19.0571 1.20916 20.9429 1.20916 22.369 2.27666ZM18.4807 21.0203L15.896 18.4356C15.2261 17.7657 14.1394 17.7657 13.4696 18.4356C12.7997 19.1056 12.7997 20.1921 13.4696 20.862L17.2712 24.6636C17.9412 25.3335 19.0278 25.3335 19.6977 24.6636C21.9891 22.3721 24.2545 20.0549 26.5354 17.753C27.2005 17.0817 27.1984 15.9986 26.528 15.332C25.8575 14.6652 24.7712 14.667 24.1055 15.3395L18.4807 21.0203ZM20 7.22299C16.4718 7.22299 13.2775 8.65314 10.9653 10.9653C8.65312 13.2776 7.22296 16.4718 7.22296 20C7.22296 23.5282 8.65312 26.7225 10.9653 29.0347C13.2775 31.3469 16.4718 32.777 20 32.777C23.5282 32.777 26.7225 31.3469 29.0347 29.0347C31.3469 26.7225 32.777 23.5282 32.777 20C32.777 16.4718 31.3469 13.2775 29.0347 10.9653C26.7225 8.65314 23.5282 7.22299 20 7.22299ZM28.1509 11.8492C26.0649 9.76322 23.1831 8.47299 20 8.47299C16.8169 8.47299 13.9351 9.76322 11.8491 11.8492C9.7632 13.9351 8.47296 16.8169 8.47296 20C8.47296 23.1831 9.7632 26.0649 11.8491 28.1509C13.9351 30.2368 16.8169 31.527 20 31.527C23.1831 31.527 26.0649 30.2368 28.1509 28.151C30.2368 26.065 31.527 23.1832 31.527 20.0001C31.527 16.8169 30.2368 13.9351 28.1509 11.8492Z" fill="#323435"></path>
</svg>
