<?xml version="1.0" encoding="UTF-8"?>
<svg xmlns="http://www.w3.org/2000/svg" width="40" height="40" viewBox="0 0 40 40" fill="none">
  <path fill-rule="evenodd" clip-rule="evenodd" d="M34.0566 20H38C37.6881 24.4056 35.7968 28.5507 32.6738 31.6738C29.5507 34.7968 25.4056 36.6881 21 37V33.0566C24.3575 32.7449 27.5004 31.2691 29.8847 28.8847C32.2691 26.5004 33.7449 23.3575 34.0566 20Z" fill="#323435"></path>
  <path fill-rule="evenodd" clip-rule="evenodd" d="M20.8116 2.01111C16.253 1.84582 11.8165 3.53045 8.47826 6.69442C5.13998 9.85838 3.17332 14.2425 3.01092 18.8823C2.84851 23.5221 4.50368 28.0376 7.61229 31.4353C10.7209 34.833 15.0283 36.8347 19.587 37V32.0469C19.5855 31.8828 19.6162 31.72 19.6773 31.5682C19.7383 31.4163 19.8284 31.2783 19.9425 31.1622C20.0565 31.0462 20.192 30.9544 20.3413 30.8923C20.4905 30.8302 20.6504 30.7989 20.8116 30.8004C22.2684 30.8004 23.711 30.5082 25.0567 29.9404C26.4025 29.3727 27.6252 28.5405 28.6548 27.4916C29.6844 26.4426 30.5008 25.1974 31.0573 23.8271C31.6138 22.4568 31.8995 20.9883 31.8981 19.5056C31.8967 19.3415 31.9274 19.1787 31.9884 19.0268C32.0495 18.8749 32.1396 18.7369 32.2536 18.6209C32.3676 18.5049 32.5032 18.4131 32.6524 18.351C32.8017 18.2889 32.9616 18.2576 33.1228 18.2591H38C37.6898 13.8386 35.7428 9.70271 32.5524 6.68682C29.3619 3.67094 25.1658 1.99985 20.8116 2.01111ZM23.6262 24.1635L19.9415 20.4131C19.8288 20.2981 19.7395 20.1617 19.6787 20.0116C19.6178 19.8615 19.5867 19.7007 19.587 19.5384V10.7583H22.047V19.0026L25.3665 22.3921L23.6262 24.1635Z" fill="#323435"></path>
</svg>
