<?xml version="1.0" encoding="UTF-8"?>
<svg xmlns="http://www.w3.org/2000/svg" width="40" height="40" viewBox="0 0 40 40" fill="none">
  <path d="M34.1666 10.3501H27.0833V8.90001C27.0833 7.30065 25.8126 6 24.25 6H15.75C14.1874 6 12.9166 7.30058 12.9166 8.90001V10.35H5.83335C4.27068 10.3501 3 11.6506 3 13.25V17.6C3 19.1994 4.27068 20.5 5.83335 20.5H17.1667V19.775C17.1666 19.6797 17.1849 19.5854 17.2205 19.4975C17.2561 19.4095 17.3082 19.3295 17.374 19.2622C17.4398 19.1948 17.5179 19.1414 17.6039 19.105C17.6899 19.0686 17.782 19.0499 17.875 19.05H22.125C22.2181 19.0499 22.3102 19.0686 22.3962 19.105C22.4821 19.1414 22.5603 19.1948 22.626 19.2622C22.6918 19.3295 22.744 19.4095 22.7796 19.4975C22.8152 19.5854 22.8334 19.6797 22.8334 19.775V20.5H34.1667C35.7293 20.5 36.9999 19.1994 36.9999 17.6V13.25C36.9999 11.6506 35.7293 10.3501 34.1666 10.3501ZM24.25 10.3501H15.75V8.90001H24.25V10.3501ZM36.607 21.2823C36.4889 21.2224 36.3568 21.1973 36.2256 21.21C36.0944 21.2226 35.9692 21.2724 35.8641 21.3538C35.3605 21.744 34.7739 21.95 34.1665 21.95H22.8333V24.125C22.8334 24.2202 22.8151 24.3145 22.7795 24.4025C22.7439 24.4905 22.6918 24.5704 22.626 24.6378C22.5602 24.7051 22.4821 24.7585 22.3961 24.7949C22.3101 24.8313 22.218 24.85 22.125 24.85H17.875C17.7819 24.85 17.6898 24.8313 17.6038 24.7949C17.5179 24.7585 17.4397 24.7051 17.374 24.6378C17.3082 24.5704 17.256 24.4905 17.2204 24.4025C17.1848 24.3145 17.1666 24.2202 17.1666 24.125V21.95H5.83335C5.226 21.95 4.63943 21.744 4.13581 21.3538C4.03099 21.2718 3.90574 21.2216 3.77436 21.2089C3.64299 21.1963 3.51078 21.2217 3.39286 21.2823C3.27483 21.3424 3.17552 21.435 3.10612 21.5497C3.03671 21.6644 2.99996 21.7967 3 21.9316L3 32.1C3 33.6994 4.27068 35 5.83335 35H34.1667C35.7293 35 37 33.6994 37 32.1V21.9316C37 21.7967 36.9632 21.6644 36.8938 21.5497C36.8244 21.435 36.7251 21.3424 36.607 21.2823Z" fill="#323435"></path>
</svg>
