<?xml version="1.0" encoding="UTF-8"?>
<svg xmlns="http://www.w3.org/2000/svg" width="40" height="40" viewBox="0 0 40 40" fill="none">
  <path d="M20.8962 17.8295L18.1265 18.2946L18.7125 21.46L21.4824 20.9949C22.3987 20.841 23.0128 20.0058 22.8512 19.1331C22.6897 18.2605 21.8128 17.6761 20.8962 17.8295Z" fill="#323435"></path>
  <path d="M37.9904 25.2248L35.7404 8.08232C35.6346 7.28198 34.6737 6.87705 33.9819 7.33501C27.8723 11.3809 19.8636 12.8648 14.221 13.3972C8.04536 13.9797 3.2732 13.5806 3.22538 13.5766C2.53786 13.5169 1.91348 14.0645 2.00988 14.7989L4.25688 31.9184C4.32719 32.4548 4.80603 32.8573 5.37346 32.8573C11.419 32.8573 16.9767 32.4081 21.9649 31.5193C22.7193 31.3849 23.34 30.7937 23.3804 29.8789C23.5462 26.1457 26.8282 23.1821 30.7516 23.2149C33.1673 23.2351 35.3063 24.3759 36.6237 26.117C37.0975 26.7432 38.1022 26.0854 37.9904 25.2248ZM21.873 23.1053L19.1031 23.5704L19.2985 24.6255L21.5143 24.2534C22.1264 24.1505 22.7098 24.5398 22.8176 25.1225C22.9254 25.7052 22.5169 26.2609 21.905 26.3637L19.6891 26.7358L19.8845 27.791C19.9925 28.3737 19.5839 28.9294 18.9719 29.0321C18.3615 29.1349 17.7767 28.7469 17.6687 28.163L15.7151 17.6117C15.6071 17.029 16.0157 16.4733 16.6277 16.3706L20.5054 15.7194C22.643 15.3605 24.6899 16.7248 25.0669 18.7611C25.4439 20.7974 24.0111 22.7462 21.873 23.1053Z" fill="#323435"></path>
  <path d="M30.6863 35C27.8948 35 25.6238 32.8372 25.6238 30.1787C25.6238 27.5202 27.8948 25.3573 30.6863 25.3573C33.4778 25.3573 35.7489 27.5202 35.7489 30.1787C35.7489 32.8372 33.4778 35 30.6863 35ZM16.4799 6.23226C16.1126 6.44387 16.1255 6.9562 16.5003 7.15568C17.7643 7.82926 18.8406 8.7813 19.6391 9.93217C19.8324 10.2108 20.1833 10.3501 20.5258 10.2784C22.7025 9.82235 24.9931 9.20749 27.2745 8.37909C27.6529 8.24169 27.76 7.77529 27.4732 7.50308C24.5112 4.69171 19.9727 4.22023 16.4799 6.23226ZM6.77297 10.729C6.49066 11.0784 6.7575 11.5851 7.22037 11.5867C10.2758 11.597 13.4539 11.3974 16.5337 10.9698C16.9967 10.9055 17.1792 10.3657 16.845 10.0538C13.9414 7.34405 9.23773 7.6788 6.77297 10.729Z" fill="#323435"></path>
</svg>
